<?xml version="1.0" encoding="UTF-8"?>
<svg width="50px" height="50px" viewBox="0 0 50 50" version="1.1" xmlns="http://www.w3.org/2000/svg" xmlns:xlink="http://www.w3.org/1999/xlink">
    <!-- Generator: Sketch 49.3 (51167) - http://www.bohemiancoding.com/sketch -->
    <title>Group 2</title>
    <desc>Created with Sketch.</desc>
    <defs></defs>
    <g id="Page-1" stroke="none" stroke-width="1" fill="none" fill-rule="evenodd">
        <g id="Group-2">
            <circle id="Oval" fill="#01BCE9" cx="25" cy="25" r="25"></circle>
            <path d="M36.5494744,19.5714286 C36.8469559,19.2672796 36.9956945,18.9078362 36.9956945,18.4930876 C36.9956945,18.0783389 36.8537168,17.7258079 36.5697572,17.4354839 C36.2857976,17.1451598 35.9409946,17 35.535338,17 C35.1296814,17 34.7781176,17.1520722 34.4806361,17.4562212 L21.2157317,31.0599078 L17.7271024,24.8801843 C17.537796,24.5207355 17.2470798,24.2857148 16.8549451,24.1751152 C16.4628104,24.0645156 16.090964,24.1129022 15.739395,24.3202765 C15.3878259,24.5276508 15.1579573,24.8248829 15.0497822,25.2119816 C14.9416071,25.5990803 14.9956939,25.9723484 15.2120441,26.3317972 L19.6336789,34.2534562 C19.9041166,34.7511546 20.3232888,35 20.891208,35 C21.1616458,35 21.4050361,34.9308763 21.6213863,34.7926267 C21.7566051,34.709677 21.8647786,34.6267285 21.9459099,34.5437788 L21.9864754,34.5023041 L36.5494744,19.5714286 Z" id="Path" stroke="#FFFFFF" stroke-width="2" fill="#FFFFFF" transform="translate(25.995694, 26.000000) rotate(-10.000000) translate(-25.995694, -26.000000) "></path>
        </g>
    </g>
</svg>