<?xml version="1.0" encoding="UTF-8"?>
<svg width="205px" height="53px" viewBox="0 0 205 53" version="1.1" xmlns="http://www.w3.org/2000/svg" xmlns:xlink="http://www.w3.org/1999/xlink">
    <!-- Generator: Sketch 49.3 (51167) - http://www.bohemiancoding.com/sketch -->
    <title>Group 13</title>
    <desc>Created with Sketch.</desc>
    <defs></defs>
    <g id="Page-1" stroke="none" stroke-width="1" fill="none" fill-rule="evenodd">
        <g id="Group-13" fill="#FFFFFF">
            <path d="M0,12.15 L6.642,12.15 L6.642,15.498 L7.074,15.498 C7.83000378,14.3099941 8.9279928,13.311004 10.368,12.501 C11.8080072,11.690996 13.4639906,11.286 15.336,11.286 C17.8200124,11.286 20.0789898,11.9069938 22.113,13.149 C24.1470102,14.3910062 25.7399942,16.1279888 26.892,18.36 C28.0440058,20.5920112 28.62,23.111986 28.62,25.92 C28.62,28.7640142 28.0440058,31.2929889 26.892,33.507 C25.7399942,35.7210111 24.1470102,37.4489938 22.113,38.691 C20.0789898,39.9330062 17.8200124,40.554 15.336,40.554 C13.4639906,40.554 11.7990073,40.158004 10.341,39.366 C8.88299271,38.573996 7.7940036,37.5840059 7.074,36.396 L6.642,36.396 L7.074,40.284 L7.074,51.354 L0,51.354 L0,12.15 Z M17.82,32.994 C18.9720058,32.3099966 19.8899966,31.3560061 20.574,30.132 C21.2580034,28.9079939 21.6,27.5040079 21.6,25.92 C21.6,24.3359921 21.2580034,22.9320061 20.574,21.708 C19.8899966,20.4839939 18.9720058,19.5390033 17.82,18.873 C16.6679942,18.2069967 15.4260067,17.874 14.094,17.874 C12.7979935,17.874 11.5740058,18.2069967 10.422,18.873 C9.26999424,19.5390033 8.35200342,20.4839939 7.668,21.708 C6.98399658,22.9320061 6.642,24.3359921 6.642,25.92 C6.642,27.5040079 6.98399658,28.9079939 7.668,30.132 C8.35200342,31.3560061 9.26999424,32.3099966 10.422,32.994 C11.5740058,33.6780034 12.7979935,34.02 14.094,34.02 C15.4260067,34.02 16.6679942,33.6780034 17.82,32.994 Z M34.83,7.776 C33.9299955,6.8759955 33.48,5.7960063 33.48,4.536 C33.48,3.2759937 33.9299955,2.20500441 34.83,1.323 C35.7300045,0.44099559 36.8099937,0 38.07,0 C39.3300063,0 40.4009956,0.44099559 41.283,1.323 C42.1650044,2.20500441 42.606,3.2759937 42.606,4.536 C42.606,5.7960063 42.1650044,6.8759955 41.283,7.776 C40.4009956,8.6760045 39.3300063,9.126 38.07,9.126 C36.8099937,9.126 35.7300045,8.6760045 34.83,7.776 Z M34.506,12.15 L41.58,12.15 L41.58,39.69 L34.506,39.69 L34.506,12.15 Z M59.319,39.366 C57.8609927,38.573996 56.7720036,37.5840059 56.052,36.396 L55.62,36.396 L55.62,39.69 L48.978,39.69 L48.978,1.026 L56.052,1.026 L56.052,11.61 L55.62,15.498 L56.052,15.498 C56.8080038,14.3099941 57.9059928,13.311004 59.346,12.501 C60.7860072,11.690996 62.4419906,11.286 64.314,11.286 C66.7980124,11.286 69.0569898,11.9069938 71.091,13.149 C73.1250102,14.3910062 74.7179942,16.1279888 75.87,18.36 C77.0220058,20.5920112 77.598,23.111986 77.598,25.92 C77.598,28.7640142 77.0220058,31.2929889 75.87,33.507 C74.7179942,35.7210111 73.1250102,37.4489938 71.091,38.691 C69.0569898,39.9330062 66.7980124,40.554 64.314,40.554 C62.4419906,40.554 60.7770073,40.158004 59.319,39.366 Z M66.798,32.994 C67.9500058,32.3099966 68.8679966,31.3560061 69.552,30.132 C70.2360034,28.9079939 70.578,27.5040079 70.578,25.92 C70.578,24.3359921 70.2360034,22.9320061 69.552,21.708 C68.8679966,20.4839939 67.9500058,19.5390033 66.798,18.873 C65.6459942,18.2069967 64.4040067,17.874 63.072,17.874 C61.7759935,17.874 60.5520058,18.2069967 59.4,18.873 C58.2479942,19.5390033 57.3300034,20.4839939 56.646,21.708 C55.9619966,22.9320061 55.62,24.3359921 55.62,25.92 C55.62,27.5040079 55.9619966,28.9079939 56.646,30.132 C57.3300034,31.3560061 58.2479942,32.3099966 59.4,32.994 C60.5520058,33.6780034 61.7759935,34.02 63.072,34.02 C64.4040067,34.02 65.6459942,33.6780034 66.798,32.994 Z" id="pib.play-copy-9"></path>
            <path d="M84.377,38.965 C83.4589954,38.0469954 83,36.9400065 83,35.644 C83,34.3479935 83.4589954,33.2500045 84.377,32.35 C85.2950046,31.4499955 86.4019935,31 87.698,31 C88.9940065,31 90.1009954,31.4499955 91.019,32.35 C91.9370046,33.2500045 92.396,34.3479935 92.396,35.644 C92.396,36.9400065 91.9370046,38.0469954 91.019,38.965 C90.1009954,39.8830046 88.9940065,40.342 87.698,40.342 C86.4019935,40.342 85.2950046,39.8830046 84.377,38.965 Z" id="Path" fill-opacity="0.37"></path>
            <path d="M99,12.864 L105.642,12.864 L105.642,16.212 L106.074,16.212 C106.830004,15.0239941 107.927993,14.025004 109.368,13.215 C110.808007,12.4049959 112.463991,12 114.336,12 C116.820012,12 119.07899,12.6209938 121.113,13.863 C123.14701,15.1050062 124.739994,16.8419888 125.892,19.074 C127.044006,21.3060112 127.62,23.825986 127.62,26.634 C127.62,29.4780142 127.044006,32.0069889 125.892,34.221 C124.739994,36.4350111 123.14701,38.1629938 121.113,39.405 C119.07899,40.6470062 116.820012,41.268 114.336,41.268 C112.463991,41.268 110.799007,40.872004 109.341,40.08 C107.882993,39.287996 106.794004,38.2980059 106.074,37.11 L105.642,37.11 L106.074,40.998 L106.074,52.068 L99,52.068 L99,12.864 Z M116.82,33.708 C117.972006,33.0239966 118.889997,32.0700061 119.574,30.846 C120.258003,29.6219939 120.6,28.2180079 120.6,26.634 C120.6,25.0499921 120.258003,23.6460061 119.574,22.422 C118.889997,21.1979939 117.972006,20.2530033 116.82,19.587 C115.667994,18.9209967 114.426007,18.588 113.094,18.588 C111.797994,18.588 110.574006,18.9209967 109.422,19.587 C108.269994,20.2530033 107.352003,21.1979939 106.668,22.422 C105.983997,23.6460061 105.642,25.0499921 105.642,26.634 C105.642,28.2180079 105.983997,29.6219939 106.668,30.846 C107.352003,32.0700061 108.269994,33.0239966 109.422,33.708 C110.574006,34.3920034 111.797994,34.734 113.094,34.734 C114.426007,34.734 115.667994,34.3920034 116.82,33.708 Z" id="Path" fill-opacity="0.37"></path>
            <polygon id="Path" fill-opacity="0.37" points="133 1 140.074 1 140.074 39.664 133 39.664"></polygon>
            <path d="M147.808,38.703 C145.935991,36.9929915 145,34.7520139 145,31.98 C145,30.1439908 145.485995,28.524007 146.458,27.12 C147.430005,25.715993 148.761992,24.6360038 150.454,23.88 C152.146008,23.1239962 154.01799,22.746 156.07,22.746 C158.914014,22.746 161.34399,23.1599959 163.36,23.988 L163.36,22.8 C163.36,21.2879924 162.793006,20.0640047 161.659,19.128 C160.524994,18.1919953 159.00401,17.724 157.096,17.724 C155.799994,17.724 154.549006,18.020997 153.343,18.615 C152.136994,19.209003 151.138004,19.9919951 150.346,20.964 L145.81,17.4 C147.142007,15.6719914 148.81599,14.3400047 150.832,13.404 C152.84801,12.4679953 155.043988,12 157.42,12 C161.632021,12 164.835989,12.9719903 167.032,14.916 C169.228011,16.8600097 170.326,19.7039813 170.326,23.448 L170.326,40.404 L163.36,40.404 L163.36,37.596 L162.928,37.596 C162.099996,38.6760054 161.011007,39.5579966 159.661,40.242 C158.310993,40.9260034 156.754009,41.268 154.99,41.268 C152.073985,41.268 149.680009,40.4130086 147.808,38.703 Z M161.551,33.789 C162.757006,32.4749934 163.36,30.9360088 163.36,29.172 C161.523991,28.3079957 159.59801,27.876 157.582,27.876 C153.909982,27.876 152.074,29.2439863 152.074,31.98 C152.074,33.0960056 152.469996,34.0049965 153.262,34.707 C154.054004,35.4090035 155.187993,35.76 156.664,35.76 C158.71601,35.76 160.344994,35.1030066 161.551,33.789 Z" id="Path" fill-opacity="0.37"></path>
            <polygon id="Path" fill-opacity="0.37" points="185.61 38.244 174 12 182.046 12 189.174 29.118 189.606 29.118 196.464 12 204.348 12 187.338 51.204 179.724 51.204"></polygon>
        </g>
    </g>
</svg>